<?xml version="1.0" standalone="no"?>
<!DOCTYPE svg PUBLIC "-//W3C//DTD SVG 1.1//EN"
  "http://www.w3.org/Graphics/SVG/1.1/DTD/svg11.dtd">
  <svg style="overflow-x: hidden; overflow-y: hidden; " width="984" height="320"><defs><clipPath id="c3-1441966612322-clip"><rect width="823" height="266"></rect></clipPath><clipPath id="c3-1441966612322-clip-xaxis"><rect x="-81" y="-20" width="986" height="70"></rect></clipPath><clipPath id="c3-1441966612322-clip-yaxis"><rect x="-79" y="-4" width="100" height="290"></rect></clipPath><clipPath id="c3-1441966612322-clip-grid"><rect width="823" height="266"></rect></clipPath><clipPath id="c3-1441966612322-clip-subchart"></clipPath></defs><g transform="translate(80.5,4.5)"><text class="c3-text c3-empty" text-anchor="middle" dominant-baseline="middle" x="411.5" y="133"></text><rect class="c3-zoom-rect" width="823" height="266" style="opacity: 0; "></rect><g clip-path="url(#c3-1441966612322-clip)" class="c3-regions" style="visibility: visible; "></g><g clip-path="url(#c3-1441966612322-clip-grid)" class="c3-grid" style="visibility: visible; "><g class="c3-xgrid-focus"><line class="c3-xgrid-focus" x1="-10" x2="-10" y1="0" y2="266" style="visibility: hidden; "></line></g></g><g clip-path="url(#c3-1441966612322-clip)" class="c3-chart"><g class="c3-event-rects c3-event-rects-single" style="fill-opacity: 0; "></g><g class="c3-chart-bars"></g><g class="c3-chart-lines"></g><g class="c3-chart-arcs" transform="translate(411.5,128)"><text class="c3-chart-arcs-title" style="text-anchor: middle; opacity: 0; "></text></g><g class="c3-chart-texts"></g></g><g clip-path="url(#c3-1441966612322-clip-grid)" class="c3-grid c3-grid-lines"><g class="c3-xgrid-lines"></g><g class="c3-ygrid-lines"><g class="c3-ygrid-line"><line style="opacity: 1; " y2="266" y1="266" x2="823" x1="0"></line><text text-anchor="end" transform="" dx="-4" dy="-5" style="opacity: 1; " y="266" x="823"></text></g></g></g><g class="c3-axis c3-axis-x" clip-path="url(#c3-1441966612322-clip-xaxis)" transform="translate(0,266)" style="visibility: visible; opacity: 1; "><text class="c3-axis-x-label" transform="" style="text-anchor: end; " x="823" dx="-0.5em" dy="-0.5em"></text><path class="domain" d="M0,6V0H823V6"></path></g><g class="c3-axis c3-axis-y" clip-path="url(#c3-1441966612322-clip-yaxis)" transform="translate(0,0)" style="visibility: visible; opacity: 1; "><text class="c3-axis-y-label" transform="rotate(-90)" style="text-anchor: end; " x="0" dx="-0.5em" dy="1.2em"></text><g class="tick" style="opacity: 1; " transform="translate(0,266)"><line x2="-6"></line><text x="-9" y="0" style="text-anchor: end; "><tspan x="-9" dy="3">0</tspan></text></g><g class="tick" style="opacity: 1; " transform="translate(0,240)"><line x2="-6"></line><text x="-9" y="0" style="text-anchor: end; "><tspan x="-9" dy="3">0,1</tspan></text></g><g class="tick" style="opacity: 1; " transform="translate(0,213)"><line x2="-6"></line><text x="-9" y="0" style="text-anchor: end; "><tspan x="-9" dy="3">0,2</tspan></text></g><g class="tick" style="opacity: 1; " transform="translate(0,187)"><line x2="-6"></line><text x="-9" y="0" style="text-anchor: end; "><tspan x="-9" dy="3">0,3</tspan></text></g><g class="tick" style="opacity: 1; " transform="translate(0,160)"><line x2="-6"></line><text x="-9" y="0" style="text-anchor: end; "><tspan x="-9" dy="3">0,4</tspan></text></g><g class="tick" style="opacity: 1; " transform="translate(0,134)"><line x2="-6"></line><text x="-9" y="0" style="text-anchor: end; "><tspan x="-9" dy="3">0,5</tspan></text></g><g class="tick" style="opacity: 1; " transform="translate(0,107)"><line x2="-6"></line><text x="-9" y="0" style="text-anchor: end; "><tspan x="-9" dy="3">0,6</tspan></text></g><g class="tick" style="opacity: 1; " transform="translate(0,81)"><line x2="-6"></line><text x="-9" y="0" style="text-anchor: end; "><tspan x="-9" dy="3">0,7</tspan></text></g><g class="tick" style="opacity: 1; " transform="translate(0,54)"><line x2="-6"></line><text x="-9" y="0" style="text-anchor: end; "><tspan x="-9" dy="3">0,8</tspan></text></g><g class="tick" style="opacity: 1; " transform="translate(0,28)"><line x2="-6"></line><text x="-9" y="0" style="text-anchor: end; "><tspan x="-9" dy="3">0,9</tspan></text></g><g class="tick" style="opacity: 1; " transform="translate(0,1)"><line x2="-6"></line><text x="-9" y="0" style="text-anchor: end; "><tspan x="-9" dy="3">1</tspan></text></g><path class="domain" d="M-6,1H0V266H-6"></path></g><g class="c3-axis c3-axis-y2" transform="translate(823,0)" style="visibility: hidden; opacity: 1; "><text class="c3-axis-y2-label" transform="rotate(-90)" style="text-anchor: end; " x="0" dx="-0.5em" dy="-0.5em"></text><g class="tick" style="opacity: 1; " transform="translate(0,266)"><line x2="6" y2="0"></line><text x="9" y="0" style="text-anchor: start; "><tspan x="9" dy="3">0%</tspan></text></g><g class="tick" style="opacity: 1; " transform="translate(0,240)"><line x2="6" y2="0"></line><text x="9" y="0" style="text-anchor: start; "><tspan x="9" dy="3">10%</tspan></text></g><g class="tick" style="opacity: 1; " transform="translate(0,213)"><line x2="6" y2="0"></line><text x="9" y="0" style="text-anchor: start; "><tspan x="9" dy="3">20%</tspan></text></g><g class="tick" style="opacity: 1; " transform="translate(0,187)"><line x2="6" y2="0"></line><text x="9" y="0" style="text-anchor: start; "><tspan x="9" dy="3">30%</tspan></text></g><g class="tick" style="opacity: 1; " transform="translate(0,160)"><line x2="6" y2="0"></line><text x="9" y="0" style="text-anchor: start; "><tspan x="9" dy="3">40%</tspan></text></g><g class="tick" style="opacity: 1; " transform="translate(0,134)"><line x2="6" y2="0"></line><text x="9" y="0" style="text-anchor: start; "><tspan x="9" dy="3">50%</tspan></text></g><g class="tick" style="opacity: 1; " transform="translate(0,107)"><line x2="6" y2="0"></line><text x="9" y="0" style="text-anchor: start; "><tspan x="9" dy="3">60%</tspan></text></g><g class="tick" style="opacity: 1; " transform="translate(0,81)"><line x2="6" y2="0"></line><text x="9" y="0" style="text-anchor: start; "><tspan x="9" dy="3">70%</tspan></text></g><g class="tick" style="opacity: 1; " transform="translate(0,54)"><line x2="6" y2="0"></line><text x="9" y="0" style="text-anchor: start; "><tspan x="9" dy="3">80%</tspan></text></g><g class="tick" style="opacity: 1; " transform="translate(0,28)"><line x2="6" y2="0"></line><text x="9" y="0" style="text-anchor: start; "><tspan x="9" dy="3">90%</tspan></text></g><g class="tick" style="opacity: 1; " transform="translate(0,1)"><line x2="6" y2="0"></line><text x="9" y="0" style="text-anchor: start; "><tspan x="9" dy="3">100%</tspan></text></g><path class="domain" d="M6,1H0V266H6"></path></g></g><g transform="translate(80.5,320.5)" style="visibility: hidden; "><g clip-path="url(#c3-1441966612322-clip-subchart)" class="c3-chart"><g class="c3-chart-bars"></g><g class="c3-chart-lines"></g></g><g clip-path="url(#c3-1441966612322-clip)" class="c3-brush" style="pointer-events: all; "><g class="resize e" style="cursor: ew-resize; display: none; " transform="translate(0,0)"><rect x="-3" width="6" height="6" style="visibility: hidden; "></rect></g><g class="resize w" style="cursor: ew-resize; display: none; " transform="translate(0,0)"><rect x="-3" width="6" height="6" style="visibility: hidden; "></rect></g></g><g class="c3-axis-x" transform="translate(0,0)" clip-path="url(#c3-1441966612322-clip-xaxis)" style="opacity: 1; "><path class="domain" d="M0,6V0H823V6"></path></g></g><g transform="translate(0,300)"></g></svg>
